<?xml version="1.0" encoding="UTF-8" standalone="no"?>
<!DOCTYPE svg PUBLIC "-//W3C//DTD SVG 1.1//EN" "http://www.w3.org/Graphics/SVG/1.1/DTD/svg11.dtd">
<svg width="100%" height="100%" viewBox="0 0 58 58" version="1.1" xmlns="http://www.w3.org/2000/svg" xmlns:xlink="http://www.w3.org/1999/xlink" xml:space="preserve" xmlns:serif="http://www.serif.com/" style="fill-rule:evenodd;clip-rule:evenodd;stroke-linejoin:round;stroke-miterlimit:2;">
    <g transform="matrix(1,0,0,1,-21,-21)">
        <rect x="21.875" y="34.375" width="6.25" height="18.75" style="fill-rule:nonzero;"/>
    </g>
    <g transform="matrix(1,0,0,1,-21,-21)">
        <rect x="34.375" y="21.875" width="18.75" height="6.25" style="fill-rule:nonzero;"/>
    </g>
    <g transform="matrix(1,0,0,1,-21,-21)">
        <rect x="28.125" y="28.125" width="6.25" height="6.25" style="fill-rule:nonzero;"/>
    </g>
    <g transform="matrix(1,0,0,1,-21,-21)">
        <rect x="34.375" y="59.375" width="18.75" height="6.25" style="fill-rule:nonzero;"/>
    </g>
    <g transform="matrix(1,0,0,1,-21,-21)">
        <rect x="28.125" y="53.125" width="6.25" height="6.25" style="fill-rule:nonzero;"/>
    </g>
    <g transform="matrix(1,0,0,1,-21,-21)">
        <rect x="59.375" y="34.375" width="6.25" height="18.75" style="fill-rule:nonzero;"/>
    </g>
    <g transform="matrix(1,0,0,1,-21,-21)">
        <rect x="53.125" y="28.125" width="6.25" height="6.25" style="fill-rule:nonzero;"/>
    </g>
    <g transform="matrix(1,0,0,1,-21,-21)">
        <rect x="42.188" y="35.938" width="6.25" height="6.25" style="fill-rule:nonzero;"/>
    </g>
    <g transform="matrix(1,0,0,1,-21,-21)">
        <rect x="53.125" y="53.125" width="6.25" height="6.25" style="fill-rule:nonzero;"/>
    </g>
    <g transform="matrix(1,0,0,1,-21,-21)">
        <rect x="59.375" y="59.375" width="6.25" height="6.25" style="fill-rule:nonzero;"/>
    </g>
    <g transform="matrix(1,0,0,1,-21,-21)">
        <rect x="65.625" y="65.625" width="6.25" height="6.25" style="fill-rule:nonzero;"/>
    </g>
    <g transform="matrix(1,0,0,1,-21,-21)">
        <rect x="71.875" y="71.875" width="6.25" height="6.25" style="fill-rule:nonzero;"/>
    </g>
</svg>
