<?xml version="1.0" encoding="UTF-8" standalone="no"?>
<!DOCTYPE svg PUBLIC "-//W3C//DTD SVG 1.1//EN" "http://www.w3.org/Graphics/SVG/1.1/DTD/svg11.dtd">
<svg width="100%" height="100%" viewBox="0 0 657 500" version="1.1" xmlns="http://www.w3.org/2000/svg" xmlns:xlink="http://www.w3.org/1999/xlink" xml:space="preserve" xmlns:serif="http://www.serif.com/" style="fill-rule:evenodd;clip-rule:evenodd;stroke-linejoin:round;stroke-miterlimit:2;">
    <g transform="matrix(1,0,0,1,-96,-174.7)">
        <rect x="251" y="174.3" width="38.6" height="38.6"/>
        <rect x="212.4" y="212.9" width="38.6" height="38.6"/>
        <rect x="212.4" y="251.5" width="38.6" height="38.6"/>
        <rect x="173.8" y="290.1" width="38.6" height="38.6"/>
        <rect x="173.8" y="328.7" width="38.6" height="38.6"/>
        <rect x="135.2" y="367.3" width="38.6" height="38.6"/>
        <rect x="135.2" y="405.9" width="38.6" height="38.6"/>
        <rect x="96.6" y="444.5" width="38.6" height="38.6"/>
        <rect x="96.6" y="521.7" width="38.6" height="38.6"/>
        <rect x="135.2" y="444.5" width="38.6" height="38.6"/>
        <rect x="135.2" y="483.1" width="38.6" height="38.6"/>
        <rect x="135.2" y="521.7" width="38.6" height="38.6"/>
        <rect x="676.6" y="367.3" width="38.6" height="38.6"/>
        <rect x="676.6" y="405.9" width="38.6" height="38.6"/>
        <rect x="676.6" y="444.5" width="38.6" height="38.6"/>
        <rect x="676.6" y="483.1" width="38.6" height="38.6"/>
        <rect x="676.6" y="521.7" width="38.6" height="38.6"/>
        <rect x="637.6" y="560.3" width="38.6" height="38.6"/>
        <rect x="599" y="598.9" width="38.6" height="38.6"/>
        <rect x="715.2" y="444.5" width="38.6" height="38.6"/>
        <rect x="715.2" y="521.7" width="38.6" height="38.6"/>
        <rect x="173.8" y="560.3" width="38.6" height="38.6"/>
        <rect x="212.4" y="598.9" width="38.6" height="38.6"/>
        <rect x="289.6" y="212.9" width="38.6" height="38.6"/>
        <rect x="289.6" y="251.5" width="38.6" height="38.6"/>
        <rect x="560.4" y="174.3" width="38.6" height="38.6"/>
        <rect x="521.8" y="212.9" width="38.6" height="38.6"/>
        <rect x="521.8" y="251.5" width="38.6" height="38.6"/>
        <rect x="599" y="212.9" width="38.6" height="38.6"/>
        <rect x="599" y="251.5" width="38.6" height="38.6"/>
        <rect x="637.6" y="290.1" width="38.6" height="38.6"/>
        <rect x="637.6" y="328.7" width="38.6" height="38.6"/>
        <rect x="328.6" y="290.1" width="38.6" height="38.6"/>
        <rect x="251" y="395.7" width="38.6" height="38.6"/>
        <rect x="212.4" y="434.3" width="38.6" height="38.6"/>
        <rect x="289.6" y="434.3" width="38.6" height="38.6"/>
        <rect x="560.4" y="395.7" width="38.6" height="38.6"/>
        <rect x="599.4" y="434.3" width="38.6" height="38.6"/>
        <rect x="522.2" y="434.3" width="38.6" height="38.6"/>
        <rect x="405.9" y="552.7" width="38.6" height="38.6"/>
        <rect x="405.9" y="514.1" width="38.6" height="38.6"/>
        <rect x="405.9" y="444.5" width="38.6" height="38.6"/>
        <rect x="367.3" y="552.7" width="38.6" height="38.6"/>
        <rect x="444.5" y="552.7" width="38.6" height="38.6"/>
        <rect x="367.2" y="290.1" width="38.6" height="38.6"/>
        <rect x="405.8" y="290.1" width="38.6" height="38.6"/>
        <rect x="444.5" y="290.1" width="38.6" height="38.6"/>
        <rect x="483.2" y="290.1" width="38.6" height="38.6"/>
        <rect x="328.6" y="637.5" width="38.6" height="38.6"/>
        <rect x="367.2" y="637.5" width="38.6" height="38.6"/>
        <rect x="251" y="637.5" width="38.6" height="38.6"/>
        <rect x="289.6" y="637.5" width="38.6" height="38.6"/>
        <rect x="405.8" y="637.5" width="38.6" height="38.6"/>
        <rect x="444.5" y="637.5" width="38.6" height="38.6"/>
        <rect x="483.2" y="637.5" width="38.6" height="38.6"/>
        <rect x="521.9" y="637.5" width="38.6" height="38.6"/>
        <rect x="560.6" y="637.5" width="38.6" height="38.6"/>
    </g>
</svg>
