<?xml version="1.0" encoding="UTF-8" standalone="no"?>
<!DOCTYPE svg PUBLIC "-//W3C//DTD SVG 1.1//EN" "http://www.w3.org/Graphics/SVG/1.1/DTD/svg11.dtd">
<svg width="100%" height="100%" viewBox="0 0 682 512" version="1.1" xmlns="http://www.w3.org/2000/svg" xmlns:xlink="http://www.w3.org/1999/xlink" xml:space="preserve" xmlns:serif="http://www.serif.com/" style="fill-rule:evenodd;clip-rule:evenodd;stroke-linejoin:round;stroke-miterlimit:2;">
    <g transform="matrix(-1,0,0,1,766,-168.75)">
        <rect x="182.4" y="243.3" width="24.3" height="24.3"/>
        <rect x="158.1" y="267.5" width="24.3" height="24.3"/>
        <rect x="158.1" y="291.8" width="24.3" height="24.3"/>
        <rect x="133.8" y="316" width="24.3" height="24.3"/>
        <rect x="133.8" y="340.3" width="24.3" height="24.3"/>
        <rect x="109.6" y="364.6" width="24.3" height="24.3"/>
        <rect x="109.6" y="388.8" width="24.3" height="24.3"/>
        <rect x="85.3" y="413.1" width="24.3" height="24.3"/>
        <rect x="85.3" y="461.6" width="24.3" height="24.3"/>
        <rect x="109.6" y="413.1" width="24.3" height="24.3"/>
        <rect x="109.6" y="437.3" width="24.3" height="24.3"/>
        <rect x="109.6" y="461.6" width="24.3" height="24.3"/>
        <rect x="376.7" y="413.1" width="24.3" height="24.3"/>
        <rect x="376.7" y="461.6" width="24.3" height="24.3"/>
        <rect x="400.9" y="413.1" width="24.3" height="24.3"/>
        <rect x="400.9" y="461.6" width="24.3" height="24.3"/>
        <rect x="133.8" y="485.8" width="24.3" height="24.3"/>
        <rect x="158.1" y="510.1" width="24.3" height="24.3"/>
        <rect x="133.8" y="534.4" width="24.3" height="24.3"/>
        <rect x="133.8" y="558.6" width="24.3" height="24.3"/>
        <rect x="133.8" y="582.9" width="24.3" height="24.3"/>
        <rect x="133.8" y="607.1" width="24.3" height="24.3"/>
        <rect x="133.8" y="631.4" width="24.3" height="24.3"/>
        <rect x="376.7" y="607.1" width="24.3" height="24.3"/>
        <rect x="400.9" y="607.1" width="24.3" height="24.3"/>
        <rect x="376.7" y="631.4" width="24.3" height="24.3"/>
        <rect x="158.1" y="655.7" width="24.3" height="24.3"/>
        <rect x="182.4" y="655.7" width="24.3" height="24.3"/>
        <rect x="328.2" y="655.7" width="24.3" height="24.3"/>
        <rect x="352.4" y="655.7" width="24.3" height="24.3"/>
        <rect x="206.6" y="631.4" width="24.3" height="24.3"/>
        <rect x="303.9" y="631.4" width="24.3" height="24.3"/>
        <rect x="570.8" y="631.4" width="24.3" height="24.3"/>
        <rect x="522.2" y="655.7" width="24.3" height="24.3"/>
        <rect x="546.5" y="655.7" width="24.3" height="24.3"/>
        <rect x="498" y="631.4" width="24.3" height="24.3"/>
        <rect x="206.6" y="267.5" width="24.3" height="24.3"/>
        <rect x="206.6" y="291.8" width="24.3" height="24.3"/>
        <rect x="352.4" y="243.3" width="24.3" height="24.3"/>
        <rect x="328.2" y="267.5" width="24.3" height="24.3"/>
        <rect x="328.2" y="291.8" width="24.3" height="24.3"/>
        <rect x="376.7" y="267.5" width="24.3" height="24.3"/>
        <rect x="376.7" y="291.8" width="24.3" height="24.3"/>
        <rect x="400.9" y="316" width="24.3" height="24.3"/>
        <rect x="400.9" y="340.3" width="24.3" height="24.3"/>
        <rect x="425.2" y="364.6" width="24.3" height="24.3"/>
        <rect x="449.5" y="364.6" width="24.3" height="24.3"/>
        <rect x="473.7" y="364.6" width="24.3" height="24.3"/>
        <rect x="498" y="364.6" width="24.3" height="24.3"/>
        <rect x="522.2" y="364.6" width="24.3" height="24.3"/>
        <rect x="546.5" y="364.6" width="24.3" height="24.3"/>
        <rect x="570.8" y="364.6" width="24.3" height="24.3"/>
        <rect x="595" y="364.6" width="24.3" height="24.3"/>
        <rect x="619.3" y="364.6" width="24.3" height="24.3"/>
        <rect x="643.5" y="364.6" width="24.3" height="24.3"/>
        <rect x="667.8" y="340.3" width="24.3" height="24.3"/>
        <rect x="667.8" y="316" width="24.3" height="24.3"/>
        <rect x="667.8" y="291.8" width="24.3" height="24.3"/>
        <rect x="740.8" y="316" width="24.3" height="24.3"/>
        <rect x="740.8" y="340.3" width="24.3" height="24.3"/>
        <rect x="740.8" y="364.6" width="24.3" height="24.3"/>
        <rect x="740.8" y="291.8" width="24.3" height="24.3"/>
        <rect x="740.8" y="267.5" width="24.3" height="24.3"/>
        <rect x="643.5" y="267.5" width="24.3" height="24.3"/>
        <rect x="619.3" y="243.3" width="24.3" height="24.3"/>
        <rect x="692" y="219" width="24.3" height="24.3"/>
        <rect x="716.6" y="243.3" width="24.3" height="24.3"/>
        <rect x="667.8" y="194.7" width="24.3" height="24.3"/>
        <rect x="643.5" y="170.5" width="24.3" height="24.3"/>
        <rect x="595" y="243.3" width="24.3" height="24.3"/>
        <rect x="619.3" y="170.5" width="24.3" height="24.3"/>
        <rect x="595" y="170.5" width="24.3" height="24.3"/>
        <rect x="570.8" y="219" width="24.3" height="24.3"/>
        <rect x="570.8" y="194.7" width="24.3" height="24.3"/>
        <rect x="425.2" y="607.1" width="24.3" height="24.3"/>
        <rect x="449.5" y="607.1" width="24.3" height="24.3"/>
        <rect x="473.7" y="607.1" width="24.3" height="24.3"/>
        <rect x="498" y="607.1" width="24.3" height="24.3"/>
        <rect x="522.2" y="607.1" width="24.3" height="24.3"/>
        <rect x="546.5" y="607.1" width="24.3" height="24.3"/>
        <rect x="570.8" y="607.1" width="24.3" height="24.3"/>
        <rect x="595" y="607.1" width="24.3" height="24.3"/>
        <rect x="619.3" y="607.1" width="24.3" height="24.3"/>
        <rect x="619.3" y="631.4" width="24.3" height="24.3"/>
        <rect x="692" y="631.4" width="24.3" height="24.3"/>
        <rect x="643.5" y="655.7" width="24.3" height="24.3"/>
        <rect x="667.8" y="655.7" width="24.3" height="24.3"/>
        <rect x="692" y="607.1" width="24.3" height="24.3"/>
        <rect x="692" y="582.9" width="24.3" height="24.3"/>
        <rect x="692" y="558.6" width="24.3" height="24.3"/>
        <rect x="692" y="534.4" width="24.3" height="24.3"/>
        <rect x="692" y="510.1" width="24.3" height="24.3"/>
        <rect x="692" y="485.8" width="24.3" height="24.3"/>
        <rect x="692" y="461.6" width="24.3" height="24.3"/>
        <rect x="692" y="437.3" width="24.3" height="24.3"/>
        <rect x="692" y="413.1" width="24.3" height="24.3"/>
        <rect x="716.6" y="388.8" width="24.3" height="24.3"/>
        <rect x="231.1" y="316" width="24.3" height="24.3"/>
        <rect x="182.4" y="382.4" width="24.3" height="24.3"/>
        <rect x="332" y="382.4" width="24.3" height="24.3"/>
        <rect x="255.4" y="413.1" width="24.3" height="24.3"/>
        <rect x="231.1" y="437.3" width="24.3" height="24.3"/>
        <rect x="279.6" y="437.3" width="24.3" height="24.3"/>
        <rect x="255.4" y="316" width="24.3" height="24.3"/>
        <rect x="279.6" y="316" width="24.3" height="24.3"/>
        <rect x="231.1" y="607.1" width="24.3" height="24.3"/>
        <rect x="255.4" y="607.1" width="24.3" height="24.3"/>
        <rect x="279.6" y="607.1" width="24.3" height="24.3"/>
        <rect x="303.9" y="316" width="24.3" height="24.3"/>
    </g>
</svg>
